<?xml version="1.0" encoding="utf-8"?>
<!-- Generator: Adobe Illustrator 21.0.2, SVG Export Plug-In . SVG Version: 6.00 Build 0)  -->
<svg version="1.1" id="Layer_1" xmlns="http://www.w3.org/2000/svg" xmlns:xlink="http://www.w3.org/1999/xlink" x="0px" y="0px"
	 viewBox="0 0 1102.6 197.1" style="enable-background:new 0 0 1102.6 197.1;" xml:space="preserve">
<style type="text/css">
	.st0{fill:#3CC194;}
	.st1{fill:#373543;}
</style>
<path class="st0" d="M164.9,25.8c-20.6,0-37.3,16.7-37.3,37.3c0,26.1,37.3,51.7,37.3,51.7s37.3-25.5,37.3-51.7
	C202.2,42.6,185.5,25.8,164.9,25.8z M164.9,91C149.5,91,137,78.5,137,63.1s12.5-27.9,27.9-27.9s27.9,12.5,27.9,27.9
	S180.3,91,164.9,91z M110.6,111.3h-8.9V20.8l-41.5,90.7H53L11.7,20.9v90.5h-9V0.4h8.6l45.3,98.2l45-98.2h8.9L110.6,111.3
	L110.6,111.3z M295.1,0.4v111h-8V97.1c-0.5,0.8-0.9,1.5-1.4,2.2c-6.5,9.4-16.7,14.5-28.7,14.5c-11.6,0-21.9-4.6-28.8-13.6
	c-6.9-8.8-8.9-19.9-8.9-30.5c0-10.5,2.2-21.7,8.9-30.4c6.5-8.6,16.8-13.4,28.1-13.4c11.7,0,23,5.1,29.5,14.2l0.5,0.6V0.4H295.1
	L295.1,0.4z M287.1,69.6c0-9.3-1.8-18.5-7.1-25.1c-5.1-6.9-13.4-10.2-22.2-10.2c-8.9,0-17.3,3.4-22.4,10.3c-5.1,6.6-6.8,15.9-6.8,25
	s1.7,18.3,6.8,25c5.1,6.9,13.6,10.6,22.2,10.6c8.8,0,17.3-3.5,22.4-10.3C285.2,88.3,287.1,78.9,287.1,69.6z M328.4,94.8
	c5.1,6.8,13.6,10.3,22.4,10.3s17.3-3.5,22.4-10.3c1.2-1.7,2.3-3.4,3.1-5.2l8.6,3.7c-1.1,2.5-2.6,4.9-4.3,7.1
	c-6.9,8.8-18.2,13.6-29.8,13.4s-22.7-4.6-29.6-13.6c-6.9-8.8-8.9-19.9-9.1-30.4c0.2-10.6,2.2-21.6,9.1-30.5
	c7.2-9.1,17.9-13.4,29.6-13.4c11.9,0,22.5,4.3,29.6,13.4c6.9,8.9,8.9,19.9,9.1,30.5v2.5h-67.8C321.9,80.4,323.8,88.6,328.4,94.8
	L328.4,94.8z M321.7,64.2h58c-0.6-7.1-2.5-14-6.6-19.4c-5.1-6.8-13.6-10.5-22.4-10.3c-8.8-0.2-17.3,3.5-22.4,10.3
	C324.4,50.2,322.4,57.1,321.7,64.2z M452.4,27.2v8.6c-3.2-1.1-6.9-1.7-10.9-1.5c-6.8,0-13.1,2.3-17.3,6.5
	c-8.2,7.2-8.8,16.7-8.8,28.4v42.2h-8.9V28.2h8.2v12.5c1.5-2.5,3.7-4.9,6.3-7.2c5.7-5.1,13.4-7.6,21-7.6
	C445.6,25.8,449,26.3,452.4,27.2L452.4,27.2z M537,70.7v40.7h-8.9V70.7c0-13.7-1.4-24.8-10.8-31.5c-4.8-3.2-10.6-4.6-16.8-4.3
	c-5.9,0.2-11.4,2.2-15.4,6c-4.3,3.7-6.9,9.3-8,15.1c-0.9,4-1.1,8.3-1.1,13v42.4h-8.8V28.2h8V40c1.2-2,2.8-3.7,4.5-5.4
	c5.7-5.4,13.6-8,21-8.3c7.6-0.5,15.7,1.4,22.2,6C535,41,537.3,55.1,537,70.7z"/>
<path class="st1" d="M677.8,55.8c-0.2,9.3-1.8,18.8-6.3,27.3c-8.6,17.1-26.5,28.4-45.9,28.4H593V0.4h32.5
	c19.6,0,37.3,11.1,45.9,28.2C675.9,37.1,677.6,46.5,677.8,55.8L677.8,55.8z M668.5,55.8c-0.2-8-1.5-15.9-5.2-23
	C655.9,18.3,641.7,9,625.1,9H602v93.4h23.1c16.5,0,31-9.1,38.2-23.6C667,71.8,668.5,63.9,668.5,55.8z M699.2,100.2
	c-6.9-8.8-9.1-19.7-9.1-30.5c0-10.5,2.3-21.6,9.1-30.4c6.8-8.6,17.7-13.4,29.6-13.4c11.7,0,22.7,4.3,29.6,13.4
	c7.1,8.8,9.3,19.9,9.3,30.4c0,10.8-2.2,21.7-9.3,30.5c-7.1,9.3-17.6,13.6-29.6,13.6C717.1,113.7,706.3,109.3,699.2,100.2z
	 M758.1,69.6c0-8.9-1.5-18.2-6.8-25c-5.1-6.8-13.6-10.2-22.5-10.2c-8.8,0-17.3,3.4-22.2,10.2c-5.2,6.8-6.9,16-6.9,25
	c0,9.1,1.7,18.3,6.9,25.1c4.9,6.8,13.4,10.3,22.2,10.3c8.9,0,17.4-3.5,22.5-10.3C756.6,88,758.1,78.7,758.1,69.6z M892.4,63
	l-0.2,48.4h-8.8l0.2-48.4c0-9.9-0.3-15.7-7.4-21.6c-3.4-2.9-8-4.6-12.5-4.6c-6.5,0-12.3,2.8-16.3,7.6c-3.9,5.1-4.5,9.9-4.5,15.4V63
	l-0.2,48.4h-8.6l0.2-48.4c0-9.9-0.3-15.7-7.6-21.6c-3.4-2.9-7.9-4.6-12.3-4.6c-6.5,0-12.5,2.8-16.3,7.6c-3.9,5.1-4.5,9.9-4.5,15.4
	v51.7h-8.9V28.2h8.2v12L793,40c5.1-7.2,13.7-11.3,22.7-11.3c6,0,12.3,2,17.3,5.9c3.5,2.8,5.7,5.6,7.2,8.8c0.6-1.2,1.4-2.3,2.2-3.4
	c5.2-7.2,13.9-11.3,22.7-11.3c6.2,0,12.3,2,17.4,5.9C892,42.2,892.4,50.5,892.4,63L892.4,63z M910.3,43.7c0.8-1.2,1.7-2.9,2.8-4.2
	c7.1-9.3,17.6-13.6,29.8-13.6c15.3,0,27.8,5.9,33.5,19.3c1.8,4.6,2.6,9.4,2.6,14v52.1h-8V93.8c-3.7,6.6-10,12-16.5,15
	c-7.2,3.5-14.3,5.2-22.2,4.6c-8.5-0.6-17.1-5.1-21.6-11.9c-2.8-4.5-4.3-9.3-4.3-14.3c0-8.9,4.2-16,11.7-20.7c8.9-5.1,19.3-6,32.7-8
	l18.8-2.6c-0.6-6-2.9-11.4-7.4-15.1c-5.1-4.5-12.3-6.2-19.4-6.2c-8.8,0-17.1,3.2-21.9,10c-0.8,0.9-1.5,2-2.2,2.9L910.3,43.7
	L910.3,43.7z M947.8,67.3c-15.4,2.2-32.2,4.9-32.4,19.4c0,9.1,7.7,17.1,17.3,18.3c12,1.5,27.1-5.7,33.2-17
	c4.3-8.2,4.3-14.5,4.3-24.1C961.5,65.3,955.8,66.1,947.8,67.3L947.8,67.3z M1009.5,1.3v11.3h-8.9V1.3H1009.5z M1009.5,28.2v83.3
	h-8.9V28.2C1000.6,28.2,1009.5,28.2,1009.5,28.2z M1102.6,70.7v40.7h-8.9V70.7c0-13.7-1.4-24.8-10.8-31.5
	c-4.8-3.2-10.6-4.6-16.8-4.3c-5.9,0.2-11.4,2.2-15.4,6c-4.3,3.7-6.9,9.3-8,15.1c-0.9,4-1.1,8.3-1.1,13v42.4h-8.8V28.2h8V40
	c1.2-2,2.8-3.7,4.5-5.4c5.7-5.4,13.6-8,21-8.3c7.6-0.5,15.7,1.4,22.2,6C1100.6,41,1102.9,55.1,1102.6,70.7L1102.6,70.7z"/>
<circle class="st0" cx="164.9" cy="63.2" r="15.3"/>
<path class="st1" d="M28.9,149.6c-1.2-2.8-2.7-5.2-5.3-6.8c-1.8-1.1-4.3-1.8-6.7-1.8c-2.3-0.1-4.6,0.4-6.4,1.4
	c-2.1,1.2-3.4,3.4-3.4,5.6c0,1.5,0.6,2.9,1.5,3.9c1.3,1.4,3.7,2.3,6.1,3l7.9,2.3c3.2,0.9,5.8,2.2,8,4.2c2.2,2.2,3.6,5.2,3.6,8.4
	c0,3.6-2,7.4-5.1,9.6c-3.1,2.2-7.2,2.9-11.4,2.9c-5.7,0-10.8-1.8-14-6.2c-1.9-2.5-3-5.4-3.6-8.1l5-1.4c0.4,2.3,1.2,4.6,2.6,6.3
	c2.3,3.3,6.3,4.6,10.2,4.6c2.9,0,6.3-0.8,8.3-2.3c2-1.4,2.8-3.6,2.8-5.7c0-1.7-0.7-3.3-2-4.6c-1.4-1.4-3.3-2.3-5.5-3l-8.1-2.4
	c-3-0.9-5.9-2-8.2-4.1c-2.2-2-3.3-5.1-3.3-7.8c0-4.1,2.8-8,6.4-9.8c2.9-1.5,5.9-1.8,8.7-1.8c3.1,0,6.5,0.7,9.2,2.3
	c3.6,2.1,6.2,5.5,7.7,9.8L28.9,149.6L28.9,149.6z M46.3,173.8c1.8,2.5,4.9,3.8,8.1,3.8s6.2-1.3,8.1-3.8c0.4-0.6,0.7-1.2,1-1.8
	l4.9,2.2c-0.5,0.9-1.1,1.9-1.8,2.8c-2.9,3.6-7.5,5.5-12.2,5.4s-9.2-1.8-12.1-5.4c-2.8-3.5-3.8-7.9-3.8-12.1c0.1-4.4,1-8.6,3.8-12.1
	c3-3.6,7.3-5.4,12.1-5.4s9.2,1.8,12.1,5.4c2.8,3.5,3.8,7.8,3.8,12.1c0,0.4,0,0.9-0.1,1.4H43.9C44,169,44.7,171.8,46.3,173.8
	L46.3,173.8z M46.3,155.8c-1.3,1.7-2,3.9-2.3,6.2h20.7c-0.2-2.3-1-4.5-2.3-6.2c-1.8-2.5-4.9-3.8-8.1-3.8
	C51.2,152,48.1,153.3,46.3,155.8z M96.4,148v4.7c-1.4-0.5-3.1-0.8-5-0.7c-2.6,0.1-4.9,0.9-6.4,2.5c-3,2.8-3.1,6.4-3.1,10.9v16.1h-5
	v-33.2h4.5v4.9c0.7-1.2,1.6-2.2,2.8-3.2c2.2-1.8,4.9-2.6,7.6-2.6C93.4,147.3,95,147.5,96.4,148z M128.2,148.2l-12.1,33.2H111
	l-12-33.2h5l9.6,26.8l9.5-26.8H128.2z M139.1,137.1v5.4h-5v-5.4H139.1z M139.1,148.2v33.2h-5v-33.2H139.1z M177.2,165.1v16.4h-5
	v-16.4c0-4.7-0.5-8.7-3.7-11.1c-1.7-1.2-3.8-1.8-6.3-1.7c-2,0.1-4,0.7-5.5,2c-1.5,1.4-2.5,3.3-3,5.5c-0.3,1.4-0.4,3-0.4,4.6v17h-5
	v-33.2h4.5v3.8c0.3-0.4,0.7-0.7,1-1.1c2.5-2.2,5.7-3.3,8.7-3.4c3.3-0.2,6.6,0.8,9.3,2.8C176.4,153.7,177.2,159,177.2,165.1
	L177.2,165.1z M213.7,148.2v33.1c0,6.3-1.4,9.8-5.2,12.7c-3.2,2.3-6.9,3.1-10.3,3.1c-3.7,0-7.4-1.3-9.8-3.8
	c-1.3-0.9-2.6-2.1-3.4-3.5l4.6-2.2c0.4,0.6,0.8,1.2,1.3,1.7c1.8,2,4.6,3,7.3,3c2.8,0,5.6-0.7,7.6-2.3c2.3-2,2.9-4.2,2.8-8.7V178
	c-2.6,3-6.4,4.4-10.6,4.4c-4.6,0-8.7-1.8-11.5-5.4c-2.8-3.5-3.7-7.9-3.7-12.2s1-8.7,3.7-12.1c2.6-3.4,6.9-5.4,11.4-5.4
	c4.4,0,8.7,1.8,11.4,5.1v-4.2L213.7,148.2L213.7,148.2z M209.2,164.7c0-3.4-0.7-6.9-2.7-9.3c-1.8-2.4-4.7-3.5-7.9-3.5
	c-3.3,0-6.3,1.2-8.1,3.8c-1.8,2.4-2.5,5.7-2.5,9.1c0,3.4,0.6,6.8,2.4,9.1c1.8,2.6,4.9,3.9,8.1,3.9c3.2,0,6.2-1.2,8-3.6
	C208.5,171.8,209.2,168.3,209.2,164.7z M267.8,142.1h-15.3v39.3h-5v-39.3h-15.3v-5h35.5v5H267.8z M273.8,173.8
	c1.8,2.5,4.9,3.8,8.1,3.8s6.2-1.3,8.1-3.8c0.4-0.6,0.7-1.2,1-1.8l4.9,2.2c-0.5,0.9-1.1,1.9-1.8,2.8c-2.9,3.6-7.5,5.5-12.2,5.4
	s-9.2-1.8-12.1-5.4c-2.8-3.5-3.8-7.9-3.8-12.1c0.1-4.4,1-8.6,3.8-12.1c3-3.6,7.3-5.4,12.1-5.4s9.2,1.8,12.1,5.4
	c2.8,3.5,3.8,7.8,3.8,12.1c0,0.4,0,0.9-0.1,1.4h-26.2C271.5,169,272.2,171.8,273.8,173.8L273.8,173.8z M273.8,155.8
	c-1.3,1.7-2,3.9-2.3,6.2h20.7c-0.2-2.3-1-4.5-2.3-6.2c-1.8-2.5-4.9-3.8-8.1-3.8C278.7,152,275.6,153.3,273.8,155.8L273.8,155.8z
	 M318.8,164.6l12.9,16.8h-5.9l-9.7-13l-9.7,13h-5.9l12.9-16.8l-12.5-16.4h5.8l9.5,12.6l9.5-12.6h5.8L318.8,164.6L318.8,164.6z
	 M334.9,154.4c0.2-0.4,0.6-1,1-1.5c2.9-3.9,7.2-5.6,12.2-5.6c6.1,0,11.1,2.2,13.5,7.4c0.9,1.9,1.3,4,1.3,5.9v20.8h-4.4v-6.6
	c-1.2,2.4-3.6,4.4-5.8,5.5c-2.7,1.4-5.6,2-8.5,1.8c-3.3-0.1-6.8-1.8-8.5-4.4c-1.3-2-2-3.8-2-6.1c0-3.5,1.8-6.6,4.9-8.4
	c3.6-2,7.3-2.3,12.4-3.1l6.9-0.9c-0.3-2.1-1.2-3.9-2.8-5.2c-1.8-1.5-4.3-2-6.8-2c-3.1,0-6,1-7.7,3.4c-0.3,0.4-0.6,0.7-0.8,1.1
	L334.9,154.4L334.9,154.4z M349.8,164.8c-5.4,0.8-11.2,1.8-11.3,6.6c-0.1,3.1,2.6,5.8,6.2,6.2c4.4,0.4,9.9-2.1,11.9-6.5
	c1.3-2.7,1.3-4.9,1.3-7.6C355.4,163.9,353.1,164.3,349.8,164.8z M391.8,158.1c-0.7-2-2.3-3.9-4.2-4.9c-1.4-0.7-3.1-1.1-4.9-1.1
	c-1.8-0.1-3.5,0.2-4.9,0.9c-1.5,0.8-2.5,2.1-2.5,3.4c0,1,0.3,1.8,1,2.5c0.8,0.8,2,1.4,4.2,2c1.7,0.5,3.8,1,6.3,1.7s4.5,1.4,6.5,3.1
	c2.5,2,3.7,4.5,3.4,7.4c-0.2,2.8-1.8,5.4-4.2,6.9c-2.6,1.7-6,2.2-9.3,2.2c-4.4,0-8.3-1.2-11.1-4.2c-1.9-2.2-3.1-5.2-3.5-7.5l4.9-1.2
	c0.2,1.8,1,3.9,2.3,5.4c1.9,2.1,4.7,2.8,7.4,2.8c2.3,0,5-0.5,6.6-1.5c1.2-0.9,1.7-2,1.9-3.3c0.1-1.3-0.4-2.5-1.4-3.3
	c-1-1-2.3-1.5-4.8-2.2c-1.7-0.5-3.5-1-5.8-1.6c-2.5-0.7-4.6-1.4-6.5-2.9c-2.1-1.6-3-4-3-6.2c0-3.5,2.5-6.5,5.5-7.9
	c2.4-1,4.8-1.4,7.1-1.3c2.3,0,4.8,0.5,7,1.6c3.1,1.7,5.9,4.8,6.9,8.1L391.8,158.1z M438.1,158.1c-0.7-2-2.3-3.9-4.2-4.9
	c-1.4-0.7-3.1-1.1-4.9-1.1c-1.8-0.1-3.5,0.2-4.9,0.9c-1.5,0.8-2.5,2.1-2.5,3.4c0,1,0.3,1.8,1,2.5c0.8,0.8,2,1.4,4.2,2
	c1.7,0.5,3.8,1,6.3,1.7s4.5,1.4,6.5,3.1c2.5,2,3.7,4.5,3.4,7.4c-0.2,2.8-1.8,5.4-4.2,6.9c-2.6,1.7-6,2.2-9.3,2.2
	c-4.4,0-8.3-1.2-11.1-4.2c-1.9-2.2-3.1-5.2-3.5-7.5l4.9-1.2c0.2,1.8,1,3.9,2.3,5.4c1.9,2.1,4.7,2.8,7.4,2.8c2.3,0,5-0.5,6.6-1.5
	c1.2-0.9,1.7-2,1.9-3.3c0.1-1.3-0.4-2.5-1.4-3.3c-1-1-2.3-1.5-4.8-2.2c-1.7-0.5-3.5-1-5.8-1.6c-2.5-0.7-4.6-1.4-6.5-2.9
	c-2.1-1.6-3-4-3-6.2c0-3.5,2.5-6.5,5.5-7.9c2.4-1,4.8-1.4,7.1-1.3c2.3,0,4.8,0.5,7,1.6c3.1,1.7,5.9,4.8,6.9,8.1L438.1,158.1z
	 M455.2,137.1v5.4h-5v-5.4H455.2z M455.2,148.2v33.2h-5v-33.2H455.2z M493.2,165.1v16.4h-5v-16.4c0-4.7-0.5-8.7-3.7-11.1
	c-1.7-1.2-3.8-1.8-6.3-1.7c-2,0.1-4,0.7-5.5,2c-1.5,1.4-2.5,3.3-3,5.5c-0.3,1.4-0.4,3-0.4,4.6v17h-5v-33.2h4.5v3.8
	c0.3-0.4,0.7-0.7,1-1.1c2.5-2.2,5.7-3.3,8.7-3.4c3.3-0.2,6.6,0.8,9.3,2.8C492.5,153.7,493.3,159,493.2,165.1L493.2,165.1z
	 M523.9,157.6c-0.3-0.7-0.7-1.3-1.1-1.8c-1.8-2.5-4.9-3.8-8.1-3.8c-3.1,0-6.2,1.2-8,3.8c-1.9,2.5-2.5,5.8-2.5,9
	c0.1,3.3,0.6,6.6,2.5,9c1.8,2.5,4.9,3.7,8,3.7c3.3,0,6.3-1.2,8.1-3.7c0.4-0.6,0.7-1.2,1-1.8l4.7,2.1c-0.6,0.9-1.1,1.8-1.8,2.7
	c-2.9,3.6-7.3,5.5-12.1,5.5c-4.7,0-9.2-1.8-12.1-5.5c-2.8-3.4-3.7-7.8-3.8-12.1c0.1-4.3,1-8.6,3.8-12.1c3-3.8,7.3-5.4,12.1-5.4
	c4.8,0,9.2,1.8,12.1,5.4c0.7,0.9,1.3,1.8,1.8,2.9L523.9,157.6L523.9,157.6z M540,173.8c1.8,2.5,4.9,3.8,8.1,3.8s6.2-1.3,8.1-3.8
	c0.4-0.6,0.7-1.2,1-1.8l4.9,2.2c-0.5,0.9-1.1,1.9-1.8,2.8c-2.9,3.6-7.5,5.5-12.2,5.4s-9.2-1.8-12.1-5.4c-2.8-3.5-3.8-7.9-3.8-12.1
	c0.1-4.4,1-8.6,3.8-12.1c3-3.6,7.3-5.4,12.1-5.4s9.2,1.8,12.1,5.4c2.8,3.5,3.8,7.8,3.8,12.1c0,0.4,0,0.9-0.1,1.4h-26.2
	C537.8,169,538.4,171.8,540,173.8L540,173.8z M540,155.8c-1.3,1.7-2,3.9-2.3,6.2h20.7c-0.2-2.3-1-4.5-2.3-6.2
	c-1.8-2.5-4.9-3.8-8.1-3.8S541.8,153.3,540,155.8L540,155.8z M595.2,137.1v44.3h-5v-38.7l-8.4,5v-5.6l8.4-5H595.2z M611.7,173
	c1.8,2.7,5,4.6,8.4,4.6c3.3,0,6.3-1.7,8.1-4.1c1.5-2,2.3-4.4,2.3-7.1v-5.7c-2.6,3-6.3,5-10.5,5c-3.8,0-7.4-1.5-10.1-4
	c-2.8-2.8-4.4-6.5-4.4-10.6c0.1-3.9,1.7-7.6,4.4-10.3c2.7-2.8,6.6-4.5,10.7-4.4c4.1-0.1,8.1,1.7,10.8,4.6c3.1,3.1,4.2,6.8,4.2,11.3
	v14.2c0,4.5-1.3,8.2-4.2,11.3c-3,3.1-7,4.7-11.3,4.6c-4.9,0-9.4-2.2-12.2-6L611.7,173L611.7,173z M612.4,146.3
	c-1.1,2.1-1.5,4.5-1,6.8c0.6,2.5,2.1,4.6,4.2,5.9c2,1.3,4.5,1.7,7,1.2c2.6-0.6,4.7-2.2,6-4.2c1.2-2,1.7-4.5,1.1-6.9
	c-0.6-2.3-2-4.4-3.9-5.7c-2.1-1.4-4.7-2-7.3-1.4C615.9,142.4,613.7,144.1,612.4,146.3L612.4,146.3z M648.5,173
	c1.8,2.7,5,4.6,8.4,4.6c3.3,0,6.3-1.7,8.1-4.1c1.5-2,2.3-4.4,2.3-7.1v-5.7c-2.6,3-6.3,5-10.5,5c-3.8,0-7.4-1.5-10.1-4
	c-2.8-2.8-4.4-6.5-4.4-10.6c0.1-3.9,1.7-7.6,4.4-10.3c2.7-2.8,6.6-4.5,10.7-4.4c4.1-0.1,8.1,1.7,10.8,4.6c3.1,3.1,4.2,6.8,4.2,11.3
	v14.2c0,4.5-1.3,8.2-4.2,11.3c-3,3.1-7,4.7-11.3,4.6c-4.9,0-9.4-2.2-12.2-6L648.5,173L648.5,173z M649.2,146.3
	c-1.1,2.1-1.5,4.5-1,6.8c0.6,2.5,2.1,4.6,4.2,5.9c2,1.3,4.5,1.7,7,1.2c2.6-0.6,4.7-2.2,6-4.2c1.2-2,1.7-4.5,1.1-6.9
	c-0.6-2.3-2-4.4-3.9-5.7c-2.1-1.4-4.7-2-7.3-1.4C652.7,142.4,650.5,144.1,649.2,146.3L649.2,146.3z M708,168.3v4.7h-4.7v8.4h-5V173
	h-19.7v-4.7l14.7-31.2h5.3l-14.7,31.2h14.4v-12.7h5v12.7H708z"/>
</svg>
