<svg id="Layer_1" xmlns="http://www.w3.org/2000/svg" viewBox="0 0 1102.6 197.1"><style>.st0{fill:#3cc194}.st1{fill:#373543}</style><path class="st0" d="M164.9 25.8c-20.6 0-37.3 16.7-37.3 37.3 0 26.1 37.3 51.7 37.3 51.7s37.3-25.5 37.3-51.7c0-20.5-16.7-37.3-37.3-37.3zm0 65.2C149.5 91 137 78.5 137 63.1s12.5-27.9 27.9-27.9 27.9 12.5 27.9 27.9S180.3 91 164.9 91zM110.6 111.3h-8.9V20.8l-41.5 90.7H53L11.7 20.9v90.5h-9V.4h8.6l45.3 98.2 45-98.2h8.9v110.9zM295.1.4v111h-8V97.1c-.5.8-.9 1.5-1.4 2.2-6.5 9.4-16.7 14.5-28.7 14.5-11.6 0-21.9-4.6-28.8-13.6-6.9-8.8-8.9-19.9-8.9-30.5 0-10.5 2.2-21.7 8.9-30.4 6.5-8.6 16.8-13.4 28.1-13.4 11.7 0 23 5.1 29.5 14.2l.5.6V.4h8.8zm-8 69.2c0-9.3-1.8-18.5-7.1-25.1-5.1-6.9-13.4-10.2-22.2-10.2-8.9 0-17.3 3.4-22.4 10.3-5.1 6.6-6.8 15.9-6.8 25s1.7 18.3 6.8 25c5.1 6.9 13.6 10.6 22.2 10.6 8.8 0 17.3-3.5 22.4-10.3 5.2-6.6 7.1-16 7.1-25.3zM328.4 94.8c5.1 6.8 13.6 10.3 22.4 10.3 8.8 0 17.3-3.5 22.4-10.3 1.2-1.7 2.3-3.4 3.1-5.2l8.6 3.7c-1.1 2.5-2.6 4.9-4.3 7.1-6.9 8.8-18.2 13.6-29.8 13.4s-22.7-4.6-29.6-13.6c-6.9-8.8-8.9-19.9-9.1-30.4.2-10.6 2.2-21.6 9.1-30.5 7.2-9.1 17.9-13.4 29.6-13.4 11.9 0 22.5 4.3 29.6 13.4 6.9 8.9 8.9 19.9 9.1 30.5v2.5h-67.8c.2 8.1 2.1 16.3 6.7 22.5zm-6.7-30.6h58c-.6-7.1-2.5-14-6.6-19.4-5.1-6.8-13.6-10.5-22.4-10.3-8.8-.2-17.3 3.5-22.4 10.3-3.9 5.4-5.9 12.3-6.6 19.4zM452.4 27.2v8.6c-3.2-1.1-6.9-1.7-10.9-1.5-6.8 0-13.1 2.3-17.3 6.5-8.2 7.2-8.8 16.7-8.8 28.4v42.2h-8.9V28.2h8.2v12.5c1.5-2.5 3.7-4.9 6.3-7.2 5.7-5.1 13.4-7.6 21-7.6 3.6-.1 7 .4 10.4 1.3zM537 70.7v40.7h-8.9V70.7c0-13.7-1.4-24.8-10.8-31.5-4.8-3.2-10.6-4.6-16.8-4.3-5.9.2-11.4 2.2-15.4 6-4.3 3.7-6.9 9.3-8 15.1-.9 4-1.1 8.3-1.1 13v42.4h-8.8V28.2h8V40c1.2-2 2.8-3.7 4.5-5.4 5.7-5.4 13.6-8 21-8.3 7.6-.5 15.7 1.4 22.2 6C535 41 537.3 55.1 537 70.7z"/><path class="st1" d="M677.8 55.8c-.2 9.3-1.8 18.8-6.3 27.3-8.6 17.1-26.5 28.4-45.9 28.4H593V.4h32.5c19.6 0 37.3 11.1 45.9 28.2 4.5 8.5 6.2 17.9 6.4 27.2zm-9.3 0c-.2-8-1.5-15.9-5.2-23C655.9 18.3 641.7 9 625.1 9H602v93.4h23.1c16.5 0 31-9.1 38.2-23.6 3.7-7 5.2-14.9 5.2-23zM699.2 100.2c-6.9-8.8-9.1-19.7-9.1-30.5 0-10.5 2.3-21.6 9.1-30.4 6.8-8.6 17.7-13.4 29.6-13.4 11.7 0 22.7 4.3 29.6 13.4 7.1 8.8 9.3 19.9 9.3 30.4 0 10.8-2.2 21.7-9.3 30.5-7.1 9.3-17.6 13.6-29.6 13.6-11.7-.1-22.5-4.5-29.6-13.6zm58.9-30.6c0-8.9-1.5-18.2-6.8-25-5.1-6.8-13.6-10.2-22.5-10.2-8.8 0-17.3 3.4-22.2 10.2-5.2 6.8-6.9 16-6.9 25 0 9.1 1.7 18.3 6.9 25.1 4.9 6.8 13.4 10.3 22.2 10.3 8.9 0 17.4-3.5 22.5-10.3 5.3-6.7 6.8-16 6.8-25.1zM892.4 63l-.2 48.4h-8.8l.2-48.4c0-9.9-.3-15.7-7.4-21.6-3.4-2.9-8-4.6-12.5-4.6-6.5 0-12.3 2.8-16.3 7.6-3.9 5.1-4.5 9.9-4.5 15.4V63l-.2 48.4h-8.6l.2-48.4c0-9.9-.3-15.7-7.6-21.6-3.4-2.9-7.9-4.6-12.3-4.6-6.5 0-12.5 2.8-16.3 7.6-3.9 5.1-4.5 9.9-4.5 15.4v51.7h-8.9V28.2h8.2v12l.1-.2c5.1-7.2 13.7-11.3 22.7-11.3 6 0 12.3 2 17.3 5.9 3.5 2.8 5.7 5.6 7.2 8.8.6-1.2 1.4-2.3 2.2-3.4 5.2-7.2 13.9-11.3 22.7-11.3 6.2 0 12.3 2 17.4 5.9 9.5 7.6 9.9 15.9 9.9 28.4zM910.3 43.7c.8-1.2 1.7-2.9 2.8-4.2 7.1-9.3 17.6-13.6 29.8-13.6 15.3 0 27.8 5.9 33.5 19.3 1.8 4.6 2.6 9.4 2.6 14v52.1h-8V93.8c-3.7 6.6-10 12-16.5 15-7.2 3.5-14.3 5.2-22.2 4.6-8.5-.6-17.1-5.1-21.6-11.9-2.8-4.5-4.3-9.3-4.3-14.3 0-8.9 4.2-16 11.7-20.7 8.9-5.1 19.3-6 32.7-8l18.8-2.6c-.6-6-2.9-11.4-7.4-15.1-5.1-4.5-12.3-6.2-19.4-6.2-8.8 0-17.1 3.2-21.9 10-.8.9-1.5 2-2.2 2.9l-8.4-3.8zm37.5 23.6c-15.4 2.2-32.2 4.9-32.4 19.4 0 9.1 7.7 17.1 17.3 18.3 12 1.5 27.1-5.7 33.2-17 4.3-8.2 4.3-14.5 4.3-24.1-8.7 1.4-14.4 2.2-22.4 3.4zM1009.5 1.3v11.3h-8.9V1.3h8.9zm0 26.9v83.3h-8.9V28.2h8.9zM1102.6 70.7v40.7h-8.9V70.7c0-13.7-1.4-24.8-10.8-31.5-4.8-3.2-10.6-4.6-16.8-4.3-5.9.2-11.4 2.2-15.4 6-4.3 3.7-6.9 9.3-8 15.1-.9 4-1.1 8.3-1.1 13v42.4h-8.8V28.2h8V40c1.2-2 2.8-3.7 4.5-5.4 5.7-5.4 13.6-8 21-8.3 7.6-.5 15.7 1.4 22.2 6 12.1 8.7 14.4 22.8 14.1 38.4z"/><circle class="st0" cx="164.9" cy="63.2" r="15.3"/><path class="st1" d="M28.9 149.6c-1.2-2.8-2.7-5.2-5.3-6.8-1.8-1.1-4.3-1.8-6.7-1.8-2.3-.1-4.6.4-6.4 1.4-2.1 1.2-3.4 3.4-3.4 5.6 0 1.5.6 2.9 1.5 3.9 1.3 1.4 3.7 2.3 6.1 3l7.9 2.3c3.2.9 5.8 2.2 8 4.2 2.2 2.2 3.6 5.2 3.6 8.4 0 3.6-2 7.4-5.1 9.6-3.1 2.2-7.2 2.9-11.4 2.9-5.7 0-10.8-1.8-14-6.2-1.9-2.5-3-5.4-3.6-8.1l5-1.4c.4 2.3 1.2 4.6 2.6 6.3 2.3 3.3 6.3 4.6 10.2 4.6 2.9 0 6.3-.8 8.3-2.3 2-1.4 2.8-3.6 2.8-5.7 0-1.7-.7-3.3-2-4.6-1.4-1.4-3.3-2.3-5.5-3l-8.1-2.4c-3-.9-5.9-2-8.2-4.1-2.2-2-3.3-5.1-3.3-7.8 0-4.1 2.8-8 6.4-9.8 2.9-1.5 5.9-1.8 8.7-1.8 3.1 0 6.5.7 9.2 2.3 3.6 2.1 6.2 5.5 7.7 9.8l-5 1.5zM46.3 173.8c1.8 2.5 4.9 3.8 8.1 3.8 3.2 0 6.2-1.3 8.1-3.8.4-.6.7-1.2 1-1.8l4.9 2.2c-.5.9-1.1 1.9-1.8 2.8-2.9 3.6-7.5 5.5-12.2 5.4-4.7-.1-9.2-1.8-12.1-5.4-2.8-3.5-3.8-7.9-3.8-12.1.1-4.4 1-8.6 3.8-12.1 3-3.6 7.3-5.4 12.1-5.4s9.2 1.8 12.1 5.4c2.8 3.5 3.8 7.8 3.8 12.1 0 .4 0 .9-.1 1.4H43.9c.1 2.7.8 5.5 2.4 7.5zm0-18c-1.3 1.7-2 3.9-2.3 6.2h20.7c-.2-2.3-1-4.5-2.3-6.2-1.8-2.5-4.9-3.8-8.1-3.8-3.1 0-6.2 1.3-8 3.8zM96.4 148v4.7c-1.4-.5-3.1-.8-5-.7-2.6.1-4.9.9-6.4 2.5-3 2.8-3.1 6.4-3.1 10.9v16.1h-5v-33.2h4.5v4.9c.7-1.2 1.6-2.2 2.8-3.2 2.2-1.8 4.9-2.6 7.6-2.6 1.6-.1 3.2.1 4.6.6zM128.2 148.2l-12.1 33.2H111l-12-33.2h5l9.6 26.8 9.5-26.8h5.1zM139.1 137.1v5.4h-5v-5.4h5zm0 11.1v33.2h-5v-33.2h5zM177.2 165.1v16.4h-5v-16.4c0-4.7-.5-8.7-3.7-11.1-1.7-1.2-3.8-1.8-6.3-1.7-2 .1-4 .7-5.5 2-1.5 1.4-2.5 3.3-3 5.5-.3 1.4-.4 3-.4 4.6v17h-5v-33.2h4.5v3.8c.3-.4.7-.7 1-1.1 2.5-2.2 5.7-3.3 8.7-3.4 3.3-.2 6.6.8 9.3 2.8 4.6 3.4 5.4 8.7 5.4 14.8zM213.7 148.2v33.1c0 6.3-1.4 9.8-5.2 12.7-3.2 2.3-6.9 3.1-10.3 3.1-3.7 0-7.4-1.3-9.8-3.8-1.3-.9-2.6-2.1-3.4-3.5l4.6-2.2c.4.6.8 1.2 1.3 1.7 1.8 2 4.6 3 7.3 3 2.8 0 5.6-.7 7.6-2.3 2.3-2 2.9-4.2 2.8-8.7V178c-2.6 3-6.4 4.4-10.6 4.4-4.6 0-8.7-1.8-11.5-5.4-2.8-3.5-3.7-7.9-3.7-12.2 0-4.3 1-8.7 3.7-12.1 2.6-3.4 6.9-5.4 11.4-5.4 4.4 0 8.7 1.8 11.4 5.1v-4.2h4.4zm-4.5 16.5c0-3.4-.7-6.9-2.7-9.3-1.8-2.4-4.7-3.5-7.9-3.5-3.3 0-6.3 1.2-8.1 3.8-1.8 2.4-2.5 5.7-2.5 9.1 0 3.4.6 6.8 2.4 9.1 1.8 2.6 4.9 3.9 8.1 3.9 3.2 0 6.2-1.2 8-3.6 2-2.4 2.7-5.9 2.7-9.5zM267.8 142.1h-15.3v39.3h-5v-39.3h-15.3v-5h35.5v5zM273.8 173.8c1.8 2.5 4.9 3.8 8.1 3.8 3.2 0 6.2-1.3 8.1-3.8.4-.6.7-1.2 1-1.8l4.9 2.2c-.5.9-1.1 1.9-1.8 2.8-2.9 3.6-7.5 5.5-12.2 5.4-4.7-.1-9.2-1.8-12.1-5.4-2.8-3.5-3.8-7.9-3.8-12.1.1-4.4 1-8.6 3.8-12.1 3-3.6 7.3-5.4 12.1-5.4s9.2 1.8 12.1 5.4c2.8 3.5 3.8 7.8 3.8 12.1 0 .4 0 .9-.1 1.4h-26.2c0 2.7.7 5.5 2.3 7.5zm0-18c-1.3 1.7-2 3.9-2.3 6.2h20.7c-.2-2.3-1-4.5-2.3-6.2-1.8-2.5-4.9-3.8-8.1-3.8-3.1 0-6.2 1.3-8 3.8zM318.8 164.6l12.9 16.8h-5.9l-9.7-13-9.7 13h-5.9l12.9-16.8-12.5-16.4h5.8l9.5 12.6 9.5-12.6h5.8l-12.7 16.4zM334.9 154.4c.2-.4.6-1 1-1.5 2.9-3.9 7.2-5.6 12.2-5.6 6.1 0 11.1 2.2 13.5 7.4.9 1.9 1.3 4 1.3 5.9v20.8h-4.4v-6.6c-1.2 2.4-3.6 4.4-5.8 5.5-2.7 1.4-5.6 2-8.5 1.8-3.3-.1-6.8-1.8-8.5-4.4-1.3-2-2-3.8-2-6.1 0-3.5 1.8-6.6 4.9-8.4 3.6-2 7.3-2.3 12.4-3.1l6.9-.9c-.3-2.1-1.2-3.9-2.8-5.2-1.8-1.5-4.3-2-6.8-2-3.1 0-6 1-7.7 3.4-.3.4-.6.7-.8 1.1l-4.9-2.1zm14.9 10.4c-5.4.8-11.2 1.8-11.3 6.6-.1 3.1 2.6 5.8 6.2 6.2 4.4.4 9.9-2.1 11.9-6.5 1.3-2.7 1.3-4.9 1.3-7.6-2.5.4-4.8.8-8.1 1.3zM391.8 158.1c-.7-2-2.3-3.9-4.2-4.9-1.4-.7-3.1-1.1-4.9-1.1-1.8-.1-3.5.2-4.9.9-1.5.8-2.5 2.1-2.5 3.4 0 1 .3 1.8 1 2.5.8.8 2 1.4 4.2 2 1.7.5 3.8 1 6.3 1.7s4.5 1.4 6.5 3.1c2.5 2 3.7 4.5 3.4 7.4-.2 2.8-1.8 5.4-4.2 6.9-2.6 1.7-6 2.2-9.3 2.2-4.4 0-8.3-1.2-11.1-4.2-1.9-2.2-3.1-5.2-3.5-7.5l4.9-1.2c.2 1.8 1 3.9 2.3 5.4 1.9 2.1 4.7 2.8 7.4 2.8 2.3 0 5-.5 6.6-1.5 1.2-.9 1.7-2 1.9-3.3.1-1.3-.4-2.5-1.4-3.3-1-1-2.3-1.5-4.8-2.2-1.7-.5-3.5-1-5.8-1.6-2.5-.7-4.6-1.4-6.5-2.9-2.1-1.6-3-4-3-6.2 0-3.5 2.5-6.5 5.5-7.9 2.4-1 4.8-1.4 7.1-1.3 2.3 0 4.8.5 7 1.6 3.1 1.7 5.9 4.8 6.9 8.1l-4.9 1.1zM438.1 158.1c-.7-2-2.3-3.9-4.2-4.9-1.4-.7-3.1-1.1-4.9-1.1-1.8-.1-3.5.2-4.9.9-1.5.8-2.5 2.1-2.5 3.4 0 1 .3 1.8 1 2.5.8.8 2 1.4 4.2 2 1.7.5 3.8 1 6.3 1.7s4.5 1.4 6.5 3.1c2.5 2 3.7 4.5 3.4 7.4-.2 2.8-1.8 5.4-4.2 6.9-2.6 1.7-6 2.2-9.3 2.2-4.4 0-8.3-1.2-11.1-4.2-1.9-2.2-3.1-5.2-3.5-7.5l4.9-1.2c.2 1.8 1 3.9 2.3 5.4 1.9 2.1 4.7 2.8 7.4 2.8 2.3 0 5-.5 6.6-1.5 1.2-.9 1.7-2 1.9-3.3.1-1.3-.4-2.5-1.4-3.3-1-1-2.3-1.5-4.8-2.2-1.7-.5-3.5-1-5.8-1.6-2.5-.7-4.6-1.4-6.5-2.9-2.1-1.6-3-4-3-6.2 0-3.5 2.5-6.5 5.5-7.9 2.4-1 4.8-1.4 7.1-1.3 2.3 0 4.8.5 7 1.6 3.1 1.7 5.9 4.8 6.9 8.1l-4.9 1.1zM455.2 137.1v5.4h-5v-5.4h5zm0 11.1v33.2h-5v-33.2h5zM493.2 165.1v16.4h-5v-16.4c0-4.7-.5-8.7-3.7-11.1-1.7-1.2-3.8-1.8-6.3-1.7-2 .1-4 .7-5.5 2-1.5 1.4-2.5 3.3-3 5.5-.3 1.4-.4 3-.4 4.6v17h-5v-33.2h4.5v3.8c.3-.4.7-.7 1-1.1 2.5-2.2 5.7-3.3 8.7-3.4 3.3-.2 6.6.8 9.3 2.8 4.7 3.4 5.5 8.7 5.4 14.8zM523.9 157.6c-.3-.7-.7-1.3-1.1-1.8-1.8-2.5-4.9-3.8-8.1-3.8-3.1 0-6.2 1.2-8 3.8-1.9 2.5-2.5 5.8-2.5 9 .1 3.3.6 6.6 2.5 9 1.8 2.5 4.9 3.7 8 3.7 3.3 0 6.3-1.2 8.1-3.7.4-.6.7-1.2 1-1.8l4.7 2.1c-.6.9-1.1 1.8-1.8 2.7-2.9 3.6-7.3 5.5-12.1 5.5-4.7 0-9.2-1.8-12.1-5.5-2.8-3.4-3.7-7.8-3.8-12.1.1-4.3 1-8.6 3.8-12.1 3-3.8 7.3-5.4 12.1-5.4s9.2 1.8 12.1 5.4c.7.9 1.3 1.8 1.8 2.9l-4.6 2.1zM540 173.8c1.8 2.5 4.9 3.8 8.1 3.8s6.2-1.3 8.1-3.8c.4-.6.7-1.2 1-1.8l4.9 2.2c-.5.9-1.1 1.9-1.8 2.8-2.9 3.6-7.5 5.5-12.2 5.4-4.7-.1-9.2-1.8-12.1-5.4-2.8-3.5-3.8-7.9-3.8-12.1.1-4.4 1-8.6 3.8-12.1 3-3.6 7.3-5.4 12.1-5.4s9.2 1.8 12.1 5.4c2.8 3.5 3.8 7.8 3.8 12.1 0 .4 0 .9-.1 1.4h-26.2c.1 2.7.7 5.5 2.3 7.5zm0-18c-1.3 1.7-2 3.9-2.3 6.2h20.7c-.2-2.3-1-4.5-2.3-6.2-1.8-2.5-4.9-3.8-8.1-3.8s-6.2 1.3-8 3.8zM595.2 137.1v44.3h-5v-38.7l-8.4 5v-5.6l8.4-5h5zM611.7 173c1.8 2.7 5 4.6 8.4 4.6 3.3 0 6.3-1.7 8.1-4.1 1.5-2 2.3-4.4 2.3-7.1v-5.7c-2.6 3-6.3 5-10.5 5-3.8 0-7.4-1.5-10.1-4-2.8-2.8-4.4-6.5-4.4-10.6.1-3.9 1.7-7.6 4.4-10.3 2.7-2.8 6.6-4.5 10.7-4.4 4.1-.1 8.1 1.7 10.8 4.6 3.1 3.1 4.2 6.8 4.2 11.3v14.2c0 4.5-1.3 8.2-4.2 11.3-3 3.1-7 4.7-11.3 4.6-4.9 0-9.4-2.2-12.2-6l3.8-3.4zm.7-26.7a9.9 9.9 0 0 0-1 6.8c.6 2.5 2.1 4.6 4.2 5.9 2 1.3 4.5 1.7 7 1.2 2.6-.6 4.7-2.2 6-4.2 1.2-2 1.7-4.5 1.1-6.9-.6-2.3-2-4.4-3.9-5.7-2.1-1.4-4.7-2-7.3-1.4-2.6.4-4.8 2.1-6.1 4.3zM648.5 173c1.8 2.7 5 4.6 8.4 4.6 3.3 0 6.3-1.7 8.1-4.1 1.5-2 2.3-4.4 2.3-7.1v-5.7c-2.6 3-6.3 5-10.5 5-3.8 0-7.4-1.5-10.1-4-2.8-2.8-4.4-6.5-4.4-10.6.1-3.9 1.7-7.6 4.4-10.3 2.7-2.8 6.6-4.5 10.7-4.4 4.1-.1 8.1 1.7 10.8 4.6 3.1 3.1 4.2 6.8 4.2 11.3v14.2c0 4.5-1.3 8.2-4.2 11.3-3 3.1-7 4.7-11.3 4.6-4.9 0-9.4-2.2-12.2-6l3.8-3.4zm.7-26.7a9.9 9.9 0 0 0-1 6.8c.6 2.5 2.1 4.6 4.2 5.9 2 1.3 4.5 1.7 7 1.2 2.6-.6 4.7-2.2 6-4.2 1.2-2 1.7-4.5 1.1-6.9-.6-2.3-2-4.4-3.9-5.7-2.1-1.4-4.7-2-7.3-1.4-2.6.4-4.8 2.1-6.1 4.3zM708 168.3v4.7h-4.7v8.4h-5V173h-19.7v-4.7l14.7-31.2h5.3l-14.7 31.2h14.4v-12.7h5v12.7h4.7z"/></svg>